# xmcd
#
# Track frame offsets: 
#        150
#        9614
#        20558
#        30250
#        38754
#        46821
#        57021
#        65598
#        78619
#        87763
#        106424
#
# Disc length: 1572 seconds
#
# Revision: 0
# Processed by: cddbd v1.5.2PL0 Copyright (c) Steve Scherf et al.
# Submitted via: ExactAudioCopy v0.99pb4
#
DISCID=7d06220b
DTITLE=The Geezinslaw Brothers - My Dirty, Lowdown, Rotten, Cotton-Pic
DTITLE=kin' Little Darlin'
DYEAR=1967
DGENRE=Country
TTITLE0=S.W.A.K.
TTITLE1=Don't Blow Your Horn
TTITLE2=I Wouldn't Do It
TTITLE3=Brooklyn Bridge
TTITLE4=Peel Me a Nanner
TTITLE5=Somone Sweet to Love
TTITLE6=My Dirty, Lowdown, Rotten, Cotton-Pickin' Little Darlin'
TTITLE7=Change of Wife
TTITLE8=I'm a People
TTITLE9=Beautiful Banjo - Ride, Ride, Ride
TTITLE10=If You Want Me To
EXTD=
EXTT0=
EXTT1=
EXTT2=
EXTT3=
EXTT4=
EXTT5=
EXTT6=
EXTT7=
EXTT8=
EXTT9=
EXTT10=
PLAYORDER=
